<?xml version="1.0" encoding="utf-8"?>
<!-- Generator: Adobe Illustrator 18.0.0, SVG Export Plug-In . SVG Version: 6.00 Build 0)  -->
<!DOCTYPE svg PUBLIC "-//W3C//DTD SVG 1.1//EN" "http://www.w3.org/Graphics/SVG/1.1/DTD/svg11.dtd">
<svg version="1.1" id="Layer_1" xmlns="http://www.w3.org/2000/svg" xmlns:xlink="http://www.w3.org/1999/xlink" 
	 viewBox="0 0 610 332" style="enable-background:new 0 0 610 332;" xml:space="preserve">
<style type="text/css">
	.st0{fill:#FFFFFF;}
	.st1{fill:#F1BF35;}
	.st2{fill:#FDD600;}
	.st3{fill:#8CD211;}
	.st4{fill:#C8F08F;}
	.st5{fill:#5AA700;}
	.st6{fill:#EE2725;}
	.st7{fill:none;}
	.st8{fill:#231F20;}
	.st9{fill:#FFFFFF;stroke:#000000;stroke-width:0.25;stroke-miterlimit:10;}
	.st10{fill:#262626;}
	.st11{fill:none;stroke:#000000;stroke-miterlimit:10;}
</style>
<g>
	<g>
		<path class="st2" d="M53.486,74.652L39.901,32.818L26.316,74.652H18.23L1.626,22.575h8.41l12.722,41.51l13.693-41.51h6.9
			l13.693,41.51l12.723-41.51h8.41L61.573,74.652H53.486z"/>
		<path class="st2" d="M121.355,74.652V40.366c0-9.165-4.744-11.86-11.752-11.86c-6.253,0-12.291,3.882-15.419,8.087v38.06h-8.086
			V2.737h8.086v27.386c3.666-4.313,10.782-8.841,18.653-8.841c10.89,0,16.605,5.283,16.605,16.604v36.766H121.355z"/>
		<path class="st2" d="M136.016,48.56c0-15.094,10.782-27.278,25.661-27.278c15.741,0,25.014,12.291,25.014,27.925v2.049h-42.157
			c0.647,9.812,7.547,18.006,18.76,18.006c5.93,0,11.968-2.372,16.065-6.577l3.882,5.283c-5.176,5.175-12.184,7.979-20.701,7.979
			C147.121,75.946,136.016,64.841,136.016,48.56z M161.569,27.967c-11.105,0-16.604,9.38-17.035,17.359h34.178
			C178.605,37.562,173.43,27.967,161.569,27.967z"/>
		<path class="st2" d="M193.696,74.652V22.575h8.086v8.41c4.205-5.499,10.243-9.488,17.359-9.488v8.302
			c-0.971-0.216-1.941-0.323-3.235-0.323c-4.96,0-11.752,4.097-14.125,8.302v36.874H193.696z"/>
		<path class="st2" d="M217.306,48.56c0-15.094,10.782-27.278,25.661-27.278c15.741,0,25.014,12.291,25.014,27.925v2.049h-42.157
			c0.647,9.812,7.547,18.006,18.76,18.006c5.93,0,11.968-2.372,16.065-6.577l3.882,5.283c-5.176,5.175-12.184,7.979-20.701,7.979
			C228.412,75.946,217.306,64.841,217.306,48.56z M242.86,27.967c-11.105,0-16.604,9.38-17.035,17.359h34.178
			C259.895,37.562,254.72,27.967,242.86,27.967z"/>
		<path class="st2" d="M273.478,26.133l-3.989-3.342c3.45-2.264,6.577-6.577,7.008-10.027c-0.215,0.108-0.97,0.215-1.509,0.215
			c-3.019,0-5.176-2.264-5.176-5.499c0-3.127,2.48-5.822,5.715-5.822c3.558,0,6.792,2.911,6.792,8.194
			C282.318,16.43,278.437,22.575,273.478,26.133z"/>
		<path class="st2" d="M280.161,67.752l4.205-5.822c3.45,3.989,10.027,7.44,17.143,7.44c7.979,0,12.291-3.774,12.291-8.949
			c0-12.615-32.238-4.852-32.238-24.151c0-8.087,7.008-14.987,19.407-14.987c8.841,0,15.095,3.342,19.3,7.547l-3.773,5.607
			c-3.127-3.774-8.841-6.577-15.526-6.577c-7.116,0-11.536,3.558-11.536,8.194c0,11.429,32.237,3.881,32.237,24.151
			c0,8.733-7.008,15.742-20.485,15.742C292.668,75.946,285.445,73.358,280.161,67.752z"/>
	</g>
	<path class="st3" d="M78.243,243.841L25.076,99.686h49.493l31.122,97.041l31.122-97.041h49.493l-53.167,144.156H78.243z"/>
	<path class="st2" d="M207.031,244.334l49.78,86.008l50.589-87.405c-14.606,9.339-32.347,14.391-51.305,14.391
		C238.099,257.327,221.194,252.783,207.031,244.334z"/>
	<path class="st3" d="M346.471,243.841V99.686h43.657v106.118h54.68v38.038H346.471z"/>
	<path class="st3" d="M558.881,243.841l-5.187-16.858h-51.87l-5.188,16.858h-49.492l53.167-144.156h54.895l53.167,144.156H558.881z
		 M527.759,142.479l-14.264,46.467h28.528L527.759,142.479z"/>
	<path class="st3" d="M177.209,171.872c0-44.306,34.364-74.563,78.886-74.563c44.522,0,78.887,30.258,78.887,74.563
		s-34.364,74.563-78.887,74.563C211.573,246.435,177.209,216.177,177.209,171.872z M290.675,171.872
		c0-20.1-13.615-36.093-34.58-36.093c-20.964,0-34.58,15.993-34.58,36.093s13.616,36.093,34.58,36.093
		C277.06,207.965,290.675,191.971,290.675,171.872z"/>
</g>
<g>
	<g>
		<path class="st2" d="M53.486,74.652L39.901,32.818L26.316,74.652H18.23L1.626,22.575h8.41l12.722,41.51l13.693-41.51h6.9
			l13.693,41.51l12.723-41.51h8.41L61.573,74.652H53.486z"/>
		<path class="st2" d="M121.355,74.652V40.366c0-9.165-4.744-11.86-11.752-11.86c-6.253,0-12.291,3.882-15.419,8.087v38.06h-8.086
			V2.737h8.086v27.386c3.666-4.313,10.782-8.841,18.653-8.841c10.89,0,16.605,5.283,16.605,16.604v36.766H121.355z"/>
		<path class="st2" d="M136.016,48.56c0-15.094,10.782-27.278,25.661-27.278c15.741,0,25.014,12.291,25.014,27.925v2.049h-42.157
			c0.647,9.812,7.547,18.006,18.76,18.006c5.93,0,11.968-2.372,16.065-6.577l3.882,5.283c-5.176,5.175-12.184,7.979-20.701,7.979
			C147.121,75.946,136.016,64.841,136.016,48.56z M161.569,27.967c-11.105,0-16.604,9.38-17.035,17.359h34.178
			C178.605,37.562,173.43,27.967,161.569,27.967z"/>
		<path class="st2" d="M193.696,74.652V22.575h8.086v8.41c4.205-5.499,10.243-9.488,17.359-9.488v8.302
			c-0.971-0.216-1.941-0.323-3.235-0.323c-4.96,0-11.752,4.097-14.125,8.302v36.874H193.696z"/>
		<path class="st2" d="M217.306,48.56c0-15.094,10.782-27.278,25.661-27.278c15.741,0,25.014,12.291,25.014,27.925v2.049h-42.157
			c0.647,9.812,7.547,18.006,18.76,18.006c5.93,0,11.968-2.372,16.065-6.577l3.882,5.283c-5.176,5.175-12.184,7.979-20.701,7.979
			C228.412,75.946,217.306,64.841,217.306,48.56z M242.86,27.967c-11.105,0-16.604,9.38-17.035,17.359h34.178
			C259.895,37.562,254.72,27.967,242.86,27.967z"/>
		<path class="st2" d="M273.478,26.133l-3.989-3.342c3.45-2.264,6.577-6.577,7.008-10.027c-0.215,0.108-0.97,0.215-1.509,0.215
			c-3.019,0-5.176-2.264-5.176-5.499c0-3.127,2.48-5.822,5.715-5.822c3.558,0,6.792,2.911,6.792,8.194
			C282.318,16.43,278.437,22.575,273.478,26.133z"/>
		<path class="st2" d="M280.161,67.752l4.205-5.822c3.45,3.989,10.027,7.44,17.143,7.44c7.979,0,12.291-3.774,12.291-8.949
			c0-12.615-32.238-4.852-32.238-24.151c0-8.087,7.008-14.987,19.407-14.987c8.841,0,15.095,3.342,19.3,7.547l-3.773,5.607
			c-3.127-3.774-8.841-6.577-15.526-6.577c-7.116,0-11.536,3.558-11.536,8.194c0,11.429,32.237,3.881,32.237,24.151
			c0,8.733-7.008,15.742-20.485,15.742C292.668,75.946,285.445,73.358,280.161,67.752z"/>
	</g>
	<path class="st3" d="M78.243,243.841L25.076,99.686h49.493l31.122,97.041l31.122-97.041h49.493l-53.167,144.156H78.243z"/>
	<path class="st2" d="M207.031,244.334l49.78,86.008l50.589-87.405c-14.606,9.339-32.347,14.391-51.305,14.391
		C238.099,257.327,221.194,252.783,207.031,244.334z"/>
	<path class="st3" d="M346.471,243.841V99.686h43.657v106.118h54.68v38.038H346.471z"/>
	<path class="st3" d="M558.881,243.841l-5.187-16.858h-51.87l-5.188,16.858h-49.492l53.167-144.156h54.895l53.167,144.156H558.881z
		 M527.759,142.479l-14.264,46.467h28.528L527.759,142.479z"/>
	<path class="st3" d="M177.209,171.872c0-44.306,34.364-74.563,78.886-74.563c44.522,0,78.887,30.258,78.887,74.563
		s-34.364,74.563-78.887,74.563C211.573,246.435,177.209,216.177,177.209,171.872z M290.675,171.872
		c0-20.1-13.615-36.093-34.58-36.093c-20.964,0-34.58,15.993-34.58,36.093s13.616,36.093,34.58,36.093
		C277.06,207.965,290.675,191.971,290.675,171.872z"/>
</g>
</svg>
